<svg width="12" height="13" viewBox="0 0 12 13" fill="none" xmlns="http://www.w3.org/2000/svg">
<g clip-path="url(#clip0_91_256)">
<path d="M2.24472 11.6965C2.19048 11.6361 2.1571 11.6015 2.12372 11.5627C1.6105 11.0274 1.09312 10.4965 0.579906 9.96557C-0.192 9.16701 -0.192 8.05766 0.579906 7.2591C2.41579 5.36413 4.25167 3.46917 6.08338 1.57852C6.83025 0.805858 7.91092 0.805858 8.66196 1.57852C9.57991 2.52816 10.4978 3.4778 11.4158 4.42744C12.196 5.23895 12.2002 6.35262 11.4158 7.15981C10.0013 8.62744 8.58269 10.0907 7.16405 11.5584C7.13067 11.5929 7.08895 11.6231 7.05139 11.6533C7.05557 11.6663 7.05974 11.6792 7.06808 11.6922C7.11398 11.6922 7.15988 11.6922 7.20578 11.6922C8.37406 11.6922 9.54235 11.6922 10.7106 11.6922C11.1696 11.6922 11.4825 12.1238 11.3323 12.5555C11.2405 12.8145 11.057 12.9656 10.7857 12.9915C10.7315 12.9958 10.6773 12.9958 10.6272 12.9958C7.53957 12.9958 4.45195 12.9958 1.36433 12.9958C1.21412 12.9958 1.05139 12.9613 0.922047 12.8922C0.6717 12.7584 0.571561 12.4433 0.650837 12.167C0.725942 11.8994 0.967945 11.7008 1.24333 11.6965C1.56878 11.6922 1.89006 11.6965 2.24889 11.6965H2.24472ZM7.76906 9.08068C6.56322 7.8332 5.38241 6.61161 4.2016 5.39003C4.19326 5.39866 4.1724 5.41593 4.15571 5.4332C3.25028 6.36989 2.34486 7.30226 1.44361 8.23895C1.22664 8.46341 1.22246 8.76125 1.44361 8.98571C2.29479 9.86629 3.14597 10.7469 3.99715 11.6231C4.0347 11.662 4.10146 11.6922 4.15571 11.6922C4.47699 11.6965 4.79409 11.7008 5.11537 11.6922C5.1863 11.6922 5.26975 11.6533 5.31982 11.6015C5.88728 11.0188 6.45056 10.4318 7.01384 9.84471C7.26836 9.5814 7.52705 9.32672 7.77323 9.08068H7.76906Z" fill="#0F4152"/>
</g>
<defs>
<clipPath id="clip0_91_256">
<rect width="12" height="12" fill="white" transform="translate(0 1)"/>
</clipPath>
</defs>
</svg>
