<svg width="12" height="12" viewBox="0 0 12 12" fill="none" xmlns="http://www.w3.org/2000/svg">
<g clip-path="url(#clip0_53_15)">
<path d="M5.52169 12.0001C4.12896 12.0001 2.73271 12.0001 1.33998 12.0001C0.671747 12.0001 0.147714 11.5606 0.021102 10.9066C0.003517 10.8187 0.003517 10.7273 0.003517 10.6394C0 7.86181 0 5.09123 0 2.31713C0 1.51549 0.573271 0.942383 1.37515 0.942383C2.96483 0.942383 4.551 0.942383 6.14068 0.942383C6.49238 0.942383 6.71395 1.22718 6.60844 1.53658C6.54514 1.7159 6.37984 1.83192 6.16882 1.83192C5.84525 1.83192 5.52169 1.83192 5.19812 1.83192C3.932 1.83192 2.6694 1.83192 1.40328 1.83192C1.04807 1.83192 0.882767 1.99366 0.882767 2.35229C0.882767 5.09474 0.882767 7.8372 0.882767 10.5797C0.882767 10.9453 1.04807 11.1106 1.41032 11.1106C4.15358 11.1106 6.89683 11.1106 9.64009 11.1106C10.0059 11.1106 10.1676 10.9453 10.1676 10.5797C10.1676 9.01153 10.1676 7.44341 10.1676 5.87529C10.1676 5.66784 10.2274 5.50259 10.4209 5.40766C10.6952 5.27054 11.0152 5.44634 11.0539 5.75926C11.0574 5.79793 11.0574 5.84013 11.0574 5.8788C11.0574 7.46802 11.0574 9.05372 11.0574 10.6429C11.0574 11.3145 10.6143 11.8489 9.95662 11.972C9.85463 11.9896 9.74912 11.9896 9.64361 11.9896C8.26846 11.9896 6.89683 11.9896 5.52169 11.9896V12.0001Z" fill="#0F4152"/>
<path d="M8.1419 1.62793C8.8875 2.37683 9.62607 3.11518 10.3752 3.86057C10.3471 3.89221 10.3119 3.93089 10.2732 3.96605C8.93674 5.30563 7.59676 6.63818 6.2603 7.98128C6.06335 8.18169 5.83826 8.28366 5.5569 8.28717C5.20872 8.29421 4.86054 8.31179 4.51235 8.32585C3.99536 8.34343 3.65421 7.99886 3.67179 7.48553C3.68586 7.11636 3.69993 6.7507 3.714 6.38152C3.72103 6.16001 3.79489 5.96663 3.95667 5.8049C5.33885 4.42664 6.71751 3.04486 8.09969 1.66661C8.11376 1.65254 8.12783 1.64199 8.1419 1.62793Z" fill="#0F4152"/>
<path d="M8.65527 1.11817C8.93312 0.836889 9.21799 0.530999 9.52397 0.246206C9.89326 -0.0913271 10.47 -0.0807792 10.8428 0.267302C11.1488 0.552095 11.4443 0.850952 11.7291 1.15333C12.0773 1.52602 12.0949 2.09912 11.7537 2.47181C11.4724 2.7777 11.1629 3.05898 10.8745 3.34026C10.1394 2.60542 9.40088 1.86355 8.65527 1.11465V1.11817Z" fill="#0F4152"/>
</g>
<defs>
<clipPath id="clip0_53_15">
<rect width="12" height="12" fill="white"/>
</clipPath>
</defs>
</svg>
