<svg width="22" height="22" viewBox="0 0 22 22" fill="none" xmlns="http://www.w3.org/2000/svg">
<circle cx="11" cy="11" r="11" fill="#FF0000"/>
<path d="M12.0664 12.7666H10.0771L9.75586 6.04688H12.3877L12.0664 12.7666ZM9.69434 14.8584C9.69434 14.4938 9.81966 14.1908 10.0703 13.9492C10.321 13.7077 10.6468 13.5869 11.0479 13.5869C11.4535 13.5869 11.7793 13.7077 12.0254 13.9492C12.276 14.1908 12.4014 14.4938 12.4014 14.8584C12.4014 15.2184 12.276 15.5215 12.0254 15.7676C11.7793 16.0137 11.4535 16.1367 11.0479 16.1367C10.6468 16.1367 10.321 16.0137 10.0703 15.7676C9.81966 15.5215 9.69434 15.2184 9.69434 14.8584Z" fill="white"/>
</svg>
