<svg width="18" height="15" viewBox="0 0 18 15" fill="none" xmlns="http://www.w3.org/2000/svg">
<g clip-path="url(#clip0_118_534)">
<path d="M18 15H0V0H18V15ZM16.4043 10.1763V1.54303H1.59331V13.4205C5.00147 10.8354 8.38475 8.26958 11.7712 5.7007C13.3108 7.1879 14.8391 8.66503 16.4035 10.1763H16.4043ZM11.65 7.75084C9.15371 9.64435 6.66221 11.5348 4.14181 13.4469H16.4187C16.4187 13.1011 16.4227 12.7723 16.4155 12.4443C16.4139 12.3885 16.3794 12.3202 16.3369 12.2799C14.7861 10.778 13.2321 9.27914 11.6508 7.75162L11.65 7.75084Z" fill="white"/>
<path d="M3.19068 4.60894C3.19228 3.71026 3.95964 2.97131 4.88834 2.97364C5.81944 2.97596 6.58359 3.71802 6.57957 4.61515C6.57556 5.51616 5.81141 6.25278 4.88191 6.25123C3.95322 6.24968 3.18907 5.50763 3.19068 4.60894Z" fill="white"/>
</g>
<defs>
<clipPath id="clip0_118_534">
<rect width="18" height="15" fill="white"/>
</clipPath>
</defs>
</svg>
