<svg width="16" height="18" viewBox="0 0 16 18" fill="none" xmlns="http://www.w3.org/2000/svg">
<g clip-path="url(#clip0_118_577)">
<path d="M1.99538 11.3398C1.99538 11.5492 1.99538 11.7028 1.99538 11.8581C1.99538 13.0463 2.00179 14.2346 1.99058 15.4246C1.98898 15.7055 2.03702 15.8468 2.33649 15.8451C6.11429 15.8363 9.89369 15.8363 13.6715 15.8451C13.9678 15.8451 14.0222 15.7107 14.0206 15.428C14.0094 14.2398 14.0158 13.0515 14.0158 11.8615C14.0158 11.7063 14.0158 11.551 14.0158 11.3433C14.6324 11.3433 15.2009 11.3329 15.7678 11.3555C15.8479 11.359 15.9872 11.5265 15.9888 11.619C15.9952 13.2417 16.0208 14.8662 15.9632 16.4872C15.9311 17.4085 15.2473 17.9912 14.3521 17.9965C12.5697 18.0052 10.7857 18 9.00329 18C6.62195 18 4.24061 18 1.85926 18C0.595725 18 0.0111988 17.3596 0.00959738 15.9707C0.00639449 14.594 0.0224089 13.2156 -1.12722e-05 11.8389C-0.00641704 11.4288 0.118495 11.3119 0.47882 11.3346C0.965658 11.3643 1.4557 11.3416 1.99538 11.3416V11.3398Z" fill="#0F4152"/>
<path d="M8.86231 3.20179C8.86231 3.47922 8.86231 3.63103 8.86231 3.78458C8.86231 6.53797 8.86231 9.28962 8.8607 12.043C8.8607 12.2437 8.8607 12.4548 8.80465 12.6432C8.68294 13.0533 8.28098 13.2923 7.88383 13.2313C7.47546 13.1684 7.17439 12.8387 7.15517 12.3902C7.13595 11.9139 7.14556 11.4341 7.14556 10.956C7.14556 8.57946 7.14556 6.2047 7.14556 3.8282C7.14556 3.67116 7.14556 3.51412 7.14556 3.24192C6.9694 3.39373 6.8573 3.47573 6.76122 3.57519C6.28078 4.07597 5.80676 4.58372 5.32472 5.08275C4.87952 5.5434 4.38307 5.56608 4.01955 5.15778C3.66403 4.75821 3.70727 4.20334 4.14286 3.7427C5.21102 2.61203 6.28078 1.48485 7.35695 0.3629C7.81817 -0.118682 8.26177 -0.116937 8.71978 0.373369C9.78954 1.52323 10.8545 2.67833 11.9131 3.84041C12.3182 4.28361 12.3342 4.8472 11.9803 5.22932C11.6232 5.61319 11.1155 5.58876 10.7056 5.15255C10.2107 4.62734 9.72548 4.08993 9.23384 3.55949C9.14576 3.46352 9.04647 3.37977 8.86391 3.20528L8.86231 3.20179Z" fill="#0F4152"/>
</g>
<defs>
<clipPath id="clip0_118_577">
<rect width="16" height="18" fill="white"/>
</clipPath>
</defs>
</svg>
