<svg width="14" height="24" viewBox="0 0 14 24" fill="none" xmlns="http://www.w3.org/2000/svg">
<g clip-path="url(#clip0_118_400)">
<path d="M7.80346 18.7059V22.4903C7.90987 22.4903 8.00365 22.4903 8.09743 22.4903C9.00041 22.4903 9.90235 22.4882 10.8053 22.4903C11.3164 22.4913 11.6799 22.8078 11.6788 23.2441C11.6788 23.6794 11.3153 23.9979 10.8043 23.9979C8.27128 24 5.73933 24 3.20633 23.9979C2.6953 23.9979 2.33284 23.6773 2.3339 23.2421C2.3339 22.8068 2.69741 22.4913 3.20949 22.4903C4.19888 22.4882 5.18932 22.4903 6.20084 22.4903V18.7069C5.46538 18.6024 4.74362 18.4309 4.08298 18.092C1.49624 16.765 0.0685259 14.7256 0.00741355 11.8635C-0.00733772 11.1888 0.0031989 10.5131 0.00635988 9.83738C0.00846721 9.33414 0.320351 9.00237 0.785016 9.0044C1.24757 9.00643 1.55208 9.33617 1.55735 9.84448C1.56683 10.6886 1.51626 11.5368 1.59423 12.3749C1.77967 14.3705 2.87864 15.8133 4.70885 16.7051C8.11429 18.365 11.8169 15.9776 12.3553 12.8497C12.4954 12.034 12.4301 11.1847 12.4564 10.3508C12.4638 10.1144 12.4469 9.87695 12.4722 9.64258C12.5123 9.26617 12.86 8.99527 13.2583 9.00542C13.6407 9.01455 14.0011 9.29762 13.9969 9.66185C13.9832 10.8073 14.0569 11.97 13.881 13.0952C13.4363 15.9452 10.9002 18.2665 7.932 18.6846C7.89828 18.6896 7.86351 18.6957 7.80451 18.7059H7.80346Z" fill="#949494"/>
<path d="M10.8991 7.87113C10.8991 9.23778 10.9033 10.6044 10.8991 11.9711C10.8917 14.1474 9.08149 15.8204 6.82349 15.7463C4.85842 15.6824 3.14727 14.0662 3.1262 12.173C3.09459 9.31286 3.09669 6.45274 3.1262 3.59263C3.14411 1.68318 4.81521 0.102458 6.83614 0.0040432C8.79806 -0.0913277 10.5956 1.33011 10.8464 3.19085C10.8969 3.56523 10.8948 3.94773 10.8969 4.32617C10.9033 5.50715 10.8991 6.68813 10.8991 7.8691V7.87113Z" fill="#949494"/>
</g>
<defs>
<clipPath id="clip0_118_400">
<rect width="14" height="24" fill="white"/>
</clipPath>
</defs>
</svg>
